<svg width="48" height="48" viewBox="0 0 48 48" fill="none" xmlns="http://www.w3.org/2000/svg">
<path d="M24 25.5C17.66 25.5 12.5 20.34 12.5 14C12.5 7.66 17.66 2.5 24 2.5C30.34 2.5 35.5 7.66 35.5 14C35.5 20.34 30.34 25.5 24 25.5ZM24 5.5C19.32 5.5 15.5 9.32 15.5 14C15.5 18.68 19.32 22.5 24 22.5C28.68 22.5 32.5 18.68 32.5 14C32.5 9.32 28.68 5.5 24 5.5Z" fill="#00FF94"/>
<path d="M6.82031 45.5C6.00031 45.5 5.32031 44.82 5.32031 44C5.32031 35.46 13.7003 28.5 24.0003 28.5C26.0203 28.5 28.0003 28.76 29.9203 29.3C30.7203 29.52 31.1803 30.34 30.9603 31.14C30.7403 31.94 29.9203 32.4001 29.1203 32.1801C27.4803 31.7201 25.7603 31.5 24.0003 31.5C15.3603 31.5 8.32031 37.1 8.32031 44C8.32031 44.82 7.64031 45.5 6.82031 45.5Z" fill="#00FF94"/>
<path d="M36 45.5C33.64 45.5 31.4 44.62 29.66 43.04C28.96 42.44 28.34 41.7 27.86 40.88C26.98 39.44 26.5 37.74 26.5 36C26.5 33.5 27.46 31.16 29.18 29.38C30.98 27.52 33.4 26.5 36 26.5C38.72 26.5 41.3 27.66 43.06 29.66C44.62 31.4 45.5 33.64 45.5 36C45.5 36.76 45.4 37.52 45.2 38.24C45 39.14 44.62 40.08 44.1 40.9C42.44 43.74 39.32 45.5 36 45.5ZM36 29.5C34.22 29.5 32.58 30.2 31.34 31.46C30.16 32.68 29.5 34.28 29.5 36C29.5 37.18 29.82 38.34 30.44 39.34C30.76 39.9 31.18 40.3999 31.66 40.8199C32.86 41.9199 34.4 42.52 36 42.52C38.26 42.52 40.4 41.32 41.56 39.38C41.9 38.82 42.16 38.1801 42.3 37.5601C42.44 37.0401 42.5 36.54 42.5 36.02C42.5 34.42 41.9 32.8801 40.82 31.6801C39.62 30.2801 37.86 29.5 36 29.5Z" fill="#00FF94"/>
<path d="M38.9995 37.4609H33.0195C32.1995 37.4609 31.5195 36.7809 31.5195 35.9609C31.5195 35.1409 32.1995 34.4609 33.0195 34.4609H38.9995C39.8195 34.4609 40.4995 35.1409 40.4995 35.9609C40.4995 36.7809 39.8195 37.4609 38.9995 37.4609Z" fill="#00FF94"/>
<path d="M36 40.519C35.18 40.519 34.5 39.839 34.5 39.019V33.0391C34.5 32.2191 35.18 31.5391 36 31.5391C36.82 31.5391 37.5 32.2191 37.5 33.0391V39.019C37.5 39.859 36.82 40.519 36 40.519Z" fill="#00FF94"/>
</svg>
