<svg width="41" height="42" viewBox="0 0 41 42" fill="none" xmlns="http://www.w3.org/2000/svg">
<g id="Check-Circle">
<path id="Vector" d="M14.8523 17.9291C14.1592 17.246 13.1196 17.246 12.4265 17.9291C11.7334 18.6123 11.7334 19.6371 12.4265 20.3203L19.5305 27.8351C19.8771 28.1767 20.397 28.3476 20.7434 28.3476C21.2633 28.3476 21.7831 28.1767 21.9564 27.6642L38.9367 6.6568C39.4565 5.97362 39.4565 4.77807 38.5902 4.26569C38.0704 3.75331 37.0309 3.75331 36.3378 4.60728L32.8723 8.8771C29.7535 5.80284 25.2485 3.92411 20.7434 3.92411C11.2136 3.92411 3.4165 11.6098 3.4165 21.0034C3.4165 30.3971 11.2136 38.0827 20.7434 38.0827C30.2732 38.0827 38.0704 30.3971 38.0704 21.0034C38.0704 19.4663 37.8972 17.9291 37.3773 16.392C37.0309 15.538 36.1644 15.0256 35.2981 15.1964C34.4318 15.3672 33.912 16.392 34.0852 17.246C34.4318 18.4415 34.605 19.8078 34.605 21.0034C34.605 28.5182 28.3674 34.6669 20.7434 34.6669C13.1196 34.6669 6.88189 28.5182 6.88189 21.0034C6.88189 13.4885 13.1196 7.33996 20.7434 7.33996C24.5554 7.33996 28.0208 8.8771 30.7931 11.6098L20.7434 24.0776L14.8523 17.9291Z" fill="url(#paint0_linear_2107_3151)"/>
</g>
<defs>
<linearGradient id="paint0_linear_2107_3151" x1="3.4165" y1="20.9993" x2="39.2915" y2="20.9993" gradientUnits="userSpaceOnUse">
<stop stop-color="#FFAA21"/>
<stop offset="1" stop-color="#00A3FF"/>
</linearGradient>
</defs>
</svg>
